<svg width="203" height="193" viewBox="0 0 203 193" fill="none" xmlns="http://www.w3.org/2000/svg">
<path d="M166.25 165.118C172.501 168.651 178.356 173.381 183.841 179.216V188.137C181.164 187.338 170.949 184.029 166.916 178.794C162.254 172.745 161.425 163.563 165.308 161.263C166.319 160.666 167.547 160.592 168.895 160.919C173.145 163.598 177.21 166.847 181.092 170.633C182.468 172.486 183.319 174.846 183.841 177.23V177.343C178.818 171.214 172.912 167.238 166.25 165.118Z" fill="#61A039"/>
<path d="M165.936 110.326C172.187 113.858 178.042 118.588 183.526 124.423V126.46C183.002 126.304 182.191 126.053 181.193 125.709C176.707 121.047 171.593 117.908 165.936 116.108C169.894 118.343 173.695 121.061 177.341 124.236C173.484 122.608 168.973 120.196 166.602 117.118C166.35 116.793 166.112 116.466 165.886 116.135C161.896 110.331 161.632 103.965 165.308 101.79C169.19 99.4909 175.997 102.748 180.659 108.795C183.354 112.294 184.111 117.724 184.265 121.675C184.017 121.961 183.771 122.253 183.526 122.551C178.504 116.422 172.598 112.446 165.936 110.326Z" fill="#61A039"/>
<path d="M201.519 142.872V142.875C201.073 143.957 200.514 145.05 199.848 146.127C198.859 147.729 197.338 149.216 195.617 150.546C193.773 151.972 191.694 153.217 189.781 154.227C187.111 155.64 184.764 156.598 183.841 156.962V156.094C189.146 150.56 194.788 146.05 200.803 142.652C194.414 144.684 188.725 148.429 183.841 154.137V150.312C189.146 144.778 194.788 140.268 200.803 136.87C194.414 138.902 188.725 142.647 183.841 148.354V144.53C189.077 139.07 194.637 134.607 200.564 131.225C203.341 133.183 203.583 137.905 201.519 142.872Z" fill="#61A039"/>
<path d="M184.074 118.947H183.446V192.463H184.074V118.947Z" fill="#3F3D56"/>
<path d="M45.1341 107.171C70.061 107.171 90.2682 89.4581 90.2682 67.6085C90.2682 45.759 70.061 28.0464 45.1341 28.0464C20.2072 28.0464 0 45.759 0 67.6085C0 89.4581 20.2072 107.171 45.1341 107.171Z" fill="#FF6884"/>
<path d="M186.545 131.037C190.341 133.84 191.768 137.829 189.732 139.947C187.697 142.064 182.97 141.508 179.173 138.703C177.639 137.601 176.428 136.193 175.642 134.597L159.728 122.542L166.341 116.117L181.327 128.683C183.256 129.091 185.045 129.899 186.545 131.037Z" fill="#FCB4B4"/>
<path d="M173.695 122.119L154.241 100.222L135.815 70.6629L135.338 111.658L162.957 131.542L173.695 122.119Z" fill="#2F2E41"/>
<path d="M89.0704 61.8479L93.5269 44.0869L108.422 44.715L112.246 57.5996L89.0704 61.8479Z" fill="#FCB4B4"/>
<path opacity="0.1" d="M89.0704 61.8479L93.5269 44.0869L108.422 44.715L112.246 57.5996L89.0704 61.8479Z" fill="black"/>
<path d="M100.606 48.8526C109.816 48.8526 117.282 42.3082 117.282 34.2353C117.282 26.1623 109.816 19.6179 100.606 19.6179C91.3961 19.6179 83.93 26.1623 83.93 34.2353C83.93 42.3082 91.3961 48.8526 100.606 48.8526Z" fill="#FCB4B4"/>
<path d="M93.1467 39.8802C93.1467 39.8802 91.4644 39.8659 87.9651 39.2955C84.4657 38.7251 90.5414 45.8926 90.5414 45.8926C74.074 39.8653 79.3435 24.5774 79.3435 24.5774C62.631 21.7758 69.6322 8.75293 69.6322 8.75293C69.6322 8.75293 75.1412 -0.565846 92.0764 0.0271463C109.012 0.620138 101.011 15.2609 101.011 15.2609C112.045 15.2793 113.286 23.9956 113.286 23.9956C113.286 23.9956 109.309 24.4308 102.08 26.0389C94.8514 27.647 93.1467 39.8802 93.1467 39.8802Z" fill="#2F2E41"/>
<path d="M92.4855 56.2542L91.7324 54.9685C91.7324 54.9685 78.3316 56.33 76.1328 58.1273C73.934 59.9246 68.9081 67.9095 68.9081 67.9095L79.9022 76.1697L92.4855 56.2542Z" fill="#FFB6B6"/>
<path d="M109.115 55.9419C109.115 55.9419 119.167 53.5918 124.821 58.5479C130.475 63.5041 137.072 72.5903 137.072 72.5903L136.758 79.7491L121.052 73.1128L109.115 55.9419Z" fill="#FFB6B6"/>
<path d="M111.678 54.9685C111.678 54.9685 124.821 50.8384 133.303 59.6493C141.784 68.4602 144.297 96.2696 144.297 96.2696C144.297 96.2696 163.458 147.758 158.746 148.309C154.034 148.86 125.28 150.381 125.28 150.381L115.398 94.3422L111 54.9685L111.678 54.9685Z" fill="#2F2E41"/>
<path d="M81.4729 104.53L78.3317 114.442L121.052 117.195C121.052 117.195 119.481 108.909 121.052 105.893L81.4729 104.53Z" fill="#FCB4B4"/>
<path d="M105.66 168.959L107.545 192.639L131.267 192.088L130.475 168.133L105.66 168.959Z" fill="#FCB4B4"/>
<path d="M68.6491 166.617L61.6833 192.363L86.5172 192.216L92.8443 171.172L68.6491 166.617Z" fill="#FCB4B4"/>
<path d="M111 54.9685H91.7324L76.1328 73.141L79.5881 110.312C79.5881 110.312 87.4411 108.385 98.4353 108.385H121.994C121.994 108.385 118.539 98.7476 122.937 94.8928C127.334 91.0381 124.193 73.141 124.193 73.141L111 54.9685Z" fill="#008CDB"/>
<path d="M76.761 111.413L59.1703 167.307C59.1703 167.307 85.0727 176.43 100.706 173.796C116.34 171.162 137.7 170.336 137.7 170.336L122.622 113.616L76.761 111.413Z" fill="#2F2E41"/>
<path d="M117.438 131.863C121.234 134.667 122.662 138.656 120.626 140.773C118.591 142.89 113.864 142.334 110.067 139.53C108.532 138.427 107.322 137.019 106.535 135.423L90.6219 123.368L97.2348 116.943L112.22 129.509C114.149 129.917 115.939 130.725 117.438 131.863Z" fill="#FCB4B4"/>
<path d="M107.73 122.119L88.2759 100.222L69.8504 70.6629L69.3726 111.658L96.9916 131.542L107.73 122.119Z" fill="#2F2E41"/>
<path d="M93.0458 54.9685C93.0458 54.9685 79.9022 50.8384 71.421 59.6493C62.9398 68.4602 60.4268 96.2696 60.4268 96.2696C60.4268 96.2696 41.2656 147.758 45.9773 148.309C50.6891 148.86 79.4435 150.381 79.4435 150.381L89.3258 94.3422L93.7235 54.9685L93.0458 54.9685Z" fill="#2F2E41"/>
<path d="M8.5972 142.802C14.8482 146.335 20.7034 151.065 26.1879 156.899V165.82C23.5116 165.022 13.2964 161.712 9.26313 156.478C4.60161 150.429 3.77233 141.246 7.65484 138.947C8.66629 138.35 9.89451 138.275 11.2421 138.603C15.4921 141.282 19.5568 144.531 23.4393 148.317C24.8152 150.17 25.6665 152.53 26.1879 154.914V155.027C21.1651 148.898 15.2597 144.922 8.5972 142.802Z" fill="#61A039"/>
<path d="M8.28308 88.0094C14.5341 91.542 20.3892 96.2723 25.8737 102.107V104.144C25.3492 103.987 24.5387 103.737 23.5399 103.393C19.0542 98.7311 13.9404 95.5922 8.28308 93.7915C12.241 96.0273 16.0418 98.7449 19.6888 101.92C15.8314 100.292 11.3206 97.8803 8.94901 94.802C8.69772 94.4771 8.45898 94.1494 8.23283 93.819C4.24351 88.0149 3.97964 81.649 7.65484 79.4738C11.5373 77.1747 18.3443 80.432 23.0058 86.4785C25.701 89.978 26.458 95.4077 26.6119 99.3589C26.3638 99.6452 26.1188 99.9371 25.8737 100.234C20.851 94.1054 14.9455 90.1295 8.28308 88.0094Z" fill="#61A039"/>
<path d="M43.8665 120.556V120.559C43.4205 121.641 42.8614 122.734 42.1954 123.811C41.206 125.413 39.6856 126.9 37.9642 128.23C36.1203 129.656 34.0409 130.901 32.1279 131.911C29.4579 133.324 27.1114 134.282 26.1879 134.645V133.778C31.4934 128.244 37.1349 123.734 43.1503 120.336C36.7611 122.368 31.0725 126.113 26.1879 131.82V127.996C31.4934 122.462 37.1349 117.951 43.1503 114.554C36.7611 116.586 31.0725 120.33 26.1879 126.038V122.214C31.4242 116.754 36.9842 112.29 42.9116 108.909C45.6884 110.867 45.9303 115.589 43.8665 120.556Z" fill="#61A039"/>
<path d="M26.502 96.5449H25.8738V192.363H26.502V96.5449Z" fill="#3F3D56"/>
<path d="M171.039 148.566L175.651 150.453C175.945 150.573 176.268 150.63 176.601 150.62C176.934 150.611 177.271 150.534 177.592 150.396C177.913 150.257 178.213 150.059 178.473 149.813C178.734 149.567 178.951 149.278 179.111 148.962L187.048 133.334C187.51 132.425 187.713 131.435 187.632 130.486L187.539 129.389L191.813 117.735L187.881 116.126L180.958 126.691C180.342 126.957 179.767 127.337 179.267 127.81C178.767 128.283 178.352 128.839 178.046 129.447L170.024 145.244C169.863 145.56 169.762 145.896 169.726 146.234C169.69 146.573 169.72 146.905 169.815 147.214C169.909 147.522 170.066 147.801 170.276 148.033C170.486 148.265 170.745 148.446 171.039 148.566Z" fill="#B5DBFF"/>
<path d="M170.022 149.675L175.386 151.87C175.733 152.012 176.113 152.079 176.505 152.067C176.898 152.055 177.295 151.965 177.673 151.802C178.052 151.639 178.405 151.406 178.712 151.116C179.02 150.826 179.275 150.485 179.464 150.112L188.695 131.935C189.237 130.871 189.475 129.711 189.38 128.6L189.272 127.333L193.883 114.76C194.107 114.791 194.346 114.735 194.554 114.604C194.762 114.472 194.925 114.274 195.012 114.047C195.099 113.819 195.104 113.579 195.026 113.371C194.948 113.162 194.792 113.002 194.588 112.918L190.099 111.082C189.895 110.998 189.657 110.998 189.43 111.082C189.203 111.166 189.004 111.328 188.87 111.537C188.737 111.746 188.678 111.988 188.705 112.215C188.732 112.443 188.844 112.641 189.018 112.771L181.553 124.164C180.101 124.795 178.878 125.953 178.155 127.385L168.825 145.759C168.636 146.132 168.516 146.528 168.474 146.927C168.432 147.325 168.467 147.718 168.579 148.081C168.69 148.445 168.874 148.773 169.122 149.046C169.37 149.32 169.675 149.533 170.022 149.675ZM194.497 113.097C194.666 113.166 194.794 113.301 194.854 113.476C194.914 113.65 194.902 113.851 194.822 114.036C194.741 114.222 194.596 114.379 194.418 114.476C194.24 114.572 194.041 114.601 193.861 114.556L193.773 114.534L189.079 127.332L189.191 128.642C189.283 129.716 189.053 130.838 188.529 131.867L179.298 150.044C179.121 150.393 178.882 150.713 178.594 150.985C178.306 151.256 177.975 151.475 177.62 151.628C177.265 151.781 176.893 151.865 176.526 151.876C176.158 151.887 175.802 151.824 175.477 151.691L170.112 149.496C169.788 149.363 169.501 149.163 169.269 148.907C169.037 148.651 168.864 148.344 168.76 148.003C168.656 147.662 168.623 147.295 168.662 146.921C168.702 146.548 168.814 146.176 168.991 145.827L178.322 127.453C178.67 126.763 179.143 126.13 179.712 125.593C180.282 125.056 180.936 124.625 181.638 124.325L181.669 124.311L189.28 112.696L189.203 112.651C189.046 112.56 188.939 112.407 188.902 112.222C188.865 112.038 188.902 111.837 189.004 111.659C189.107 111.482 189.268 111.342 189.455 111.268C189.641 111.194 189.839 111.191 190.009 111.26L194.497 113.097Z" fill="#3F3D56"/>
<path d="M183.238 142.287L172.93 138.07L176.108 131.812L186.416 136.029L183.238 142.287Z" fill="#3F3D56"/>
<path d="M185.691 140.004C184.943 140.977 183.945 141.308 183.461 140.744C182.977 140.18 183.192 138.934 183.94 137.961C184.235 137.568 184.599 137.264 185.002 137.074L188.212 133.001L189.673 134.828L186.353 138.65C186.221 139.156 185.994 139.62 185.691 140.004Z" fill="#FCB4B4"/>
</svg>
